/* XPM */
static char *result[] = {
/* columns rows colors chars-per-pixel */
"32 32 29 1 ",
"  c black",
". c #161616",
"X c #1B1723",
"o c #202020",
"O c #2D2420",
"+ c #2F2E2F",
"@ c #342A25",
"# c #3C312C",
"$ c #272233",
"% c #7A2D18",
"& c #512D23",
"* c #5B3C2C",
"= c #453A35",
"- c #4A413C",
"; c #5A5237",
": c #645C3F",
"> c #39314B",
", c #3E2F5A",
"< c #695D58",
"1 c #5E724A",
"2 c #70694F",
"3 c #677755",
"4 c #6A7A5A",
"5 c #564064",
"6 c #70805F",
"7 c #778667",
"8 c #8DAB5F",
"9 c #A2A97F",
"0 c #BEC49F",
/* pixels */
"555555+++555555555555555+++55555",
",,55555+5555555555,,55555+555555",
",,,5,55+55,,5,,,5,,,,5,55+55,5,,",
">>,,,>5+5>,,,,>,,,>>>,,>5+5>,,,,",
">,,,>>>+>>>,,>>>,,,,,,>>>+>>>,,>",
">>>>>>>+>>>>>     >,,>>>>+>>>>>>",
">>>>>>+++>>> *&&&& >>>>>+++>>>>>",
"+++++++++++ *1*&&*1 ++++++++++++",
"5555555555 &*1*&*111 5555555+++5",
"5,55555555 &*1**3111 ,5555555+55",
",,,,5,,,5, *13*66311 ,,,5,,55+55",
",,,,,,,,>, 136*66631 >,,>,,,5+5,",
",,,,,>>,,> 3  6*6  3 >,,,>,,>+>,",
",,,,>>,,,> 3086*6803 ,,>,,,>>+>>",
">,>>>>>,>> 66666*666 >>>>,>>>+>>",
">>>>>>>>>> 166666*61 >>>>>>>+++>",
"++++++++++ =196969*= +++++++++++",
"55555555++ &=19%9%== 55+++555555",
"5,5555555+ &&#1%%#== 555+5555555",
",,,,5,,55+ 7&####6== ,55+55,,5,,",
",>,>,,,>5+ =7@@@44== ,>5+5>,,,,,",
">>,,,,>>>+ ==@@@4@== >>>+>>>,,,,",
">>>>,>>>>+ ==OOOOO== >>>+>>>>,>>",
">>>>>>>>++ ==:::::== >>+++>>>>>>",
"++++++++++ 77::;::77 +++++++++++",
"+++55555555 222 ;:: 555555555555",
"5+555555,55 -- 5 :: 555,555,5555",
"5+5,,5,,,,5 <% % 44 ,5,,,5,,,,,,",
",+,,,,,,>,,,  >5 77 ,,,,,,,,,,>,",
">+>>>>>>>>$XXXX$.XXX$>>,,>>>>>>>",
"+++>>>>>>>>$$$$ooo$$>>>>>>>>>>>>",
"++++++++++++++++++++++++++++++++"
};
