/* XPM */
static char *result[] = {
/* columns rows colors chars-per-pixel */
"32 32 26 1 ",
"  c #0C0A07",
". c #291A18",
"X c #211C28",
"o c #242322",
"O c #2F2E2F",
"+ c #362623",
"@ c #3A2B28",
"# c #2B2535",
"$ c #4C342F",
"% c #553D39",
"& c #4C403D",
"* c #554C3C",
"= c #2F2340",
"- c #39314B",
"; c #3E2F5A",
": c #425059",
"> c #634A45",
", c #564064",
"< c #57636B",
"1 c #6E7D61",
"2 c #B56A68",
"3 c #87947C",
"4 c #C0AC98",
"5 c #D2A394",
"6 c #E4B5A5",
"7 c #DBCBBC",
/* pixels */
",,,,,,OOO,,,,,,,,,,,,,,,OOO,,,,,",
";;,,,,,O,,,,,,,,,,;;,,,,,O,,,,,,",
";;;,;,,O,,;;,;;;,;;;;,;,,O,,;,;;",
"--;;;-,O,-;;;;  ;; --;;-,O,-;;;;",
"-;;;---O---   $$  $ ;;---O---;;-",
"-------O-- $$$>>$$>$ ----O------",
"------OOO-- >>>>>>>>> --OOO-----",
"OOOOOOOOOO >>>>>>>>>>$ OOOOOOOOO",
",,,,,,,,,, >>>$$>$>>>$$ ,,,,OOO,",
",;,,,,,,, $$>>5$>5>>>> ,,,,,,O,,",
";;;;,;;;,; $>555>55>>> ;,;;,,O,,",
";;;;;;;;-; >>5 656 5$>> -;;;,O,;",
";;;;;--;; %>25.666.52% ;;-;;-O-;",
";;;;--;;;- %%5666665%% -;;;--O--",
"-;-----;--- %%56665%% ---;---O--",
"------------ % 555 % -------OOO-",
"OOOOOOOOOOO @1@444@1@ OOOOOOOOOO",
",,,,,,,,OOO @1&774&1@ ,OOO,,,,,,",
",;,,,,,,,O @@3&777&3@@ ,O,,,,,,,",
";;;;,;;,,O &@1&477&1@& ,O,,;;,;;",
";-;-;;;-, && @&747&@ && O,-;;;;;",
"--;;;;--- 65 @@:::@@ 56 O---;;;;",
"----;----O   :::::::   -O----;--",
"--------OOO- :<<<<<: --OOO------",
"OOOOOOOOOOOO :<<:<<: OOOOOOOOOOO",
"OOO,,,,,,,,, :<: :<: ,,,,,,,,,,,",
",O,,,,,,;,,, :: O :: ,,;,,,;,,,,",
",O,;;,;;;;,; ++ O ** ,;;;,;;;;;;",
";O;;;;;;-;;; ** O,  ;;;;;;;;;;-;",
"-O-------####XX#o#XX###=;-------",
"OOO-------#####ooo#####---------",
"OOOOOOOOOOOOOOOOOOOOOOOOOOOOOOOO"
};
