/* XPM */
static char *result[] = {
/* columns rows colors chars-per-pixel */
"32 32 5 1 ",
"  c #564064",
". c #2F2E2F",
"X c #3E2F5A",
"o c #39314B",
"O c white",
/* pixels */
"      ...               ...     ",
"XX     .          XX     .      ",
"XXX X  .  XX XXX XXXX X  .  X XX",
"ooXXXo . oXXXXoXXXoooXXo . oXXXX",
"oXXXooo.oooXXoooXXXXXXooo.oooXXo",
"ooooooo.oooooooooooXXoooo.oooooo",
"oooooo...ooooooooooooooo...ooooo",
"................................",
"             ...            ... ",
" X        X   .      X       .  ",
"XXXX XXX XXX  .  XX XXXX XX  .  ",
"XXXXXXXXoXXXX . XXXXXoXXoXXX . X",
"XXXXXooXXoXXXo.oXXXXooXXXoXXo.oX",
"XXXXooXXXooXoo.ooXoooXXoXXXoo.oo",
"oXoooooXoooooo.ooooooooooXooo.oo",
"ooooooooooooo...oooooooooooo...o",
"................................",
"        ...            ...      ",
" X       .      X   X   .       ",
"XXXX XX  .  XX XXX XXX  .  XX XX",
"XoXoXXXo . oXXXXXXoXXXo . oXXXXX",
"ooXXXXooo.oooXooXXXXXooo.oooXXXX",
"ooooXoooo.oooooooooXoooo.ooooXoo",
"oooooooo...oooooooooooo...oooooo",
"................................",
"...            ...              ",
" .      X       .      X   X    ",
" . XX XXXX XXX  .  XX XXX XXXXXX",
"X.XXXXXXoXXXXoo . ooXXXXXXXXXXoX",
"o.oooooooooooooo.ooooooXXooooooo",
"...oooooooooooo...oooooooooooooo",
"................................"
};
