/* XPM */
static char *result[] = {
/* columns rows colors chars-per-pixel */
"31 30 5 1 ",
"  c #2F2E2F",
". c #564064",
"X c #85578E",
"o c #3E2F5A",
"O c white",
/* pixels */
"                               ",
".XXXXXXXXXX   XXXXXXXXXXXXXXX. ",
"XXXX.XXXXXXX XXXXXX.XXX.XXXXXX ",
"XX....X...XX XX..X...X....X.XX ",
"X........ooX Xoo.............X ",
".X..oooooooo oooooo..ooooo.... ",
"o..oooooooo   ooooooooooooo..o ",
"                               ",
".XXXXXXXXXXXXXXXXXXXXXXXXXXXX. ",
"XXXXXXXXXXXXXX..XXXXXXXXXXXXXX ",
"XX...X..X...X....X.XX.XX.X..XX ",
"X.X.......o...oo...........X.X ",
"X.....o..ooo......o.o.o....... ",
".X...oooooooooo..ooooooooo.... ",
"o..oooooooooooooooooooooooo..o ",
"                               ",
".XXXXXXXX   XXXXXXXXXXXXXXXXX. ",
"XXXXXX.XXX XXXXXX.XXXXXXXXXXXX ",
"XXX.X...XX XX..X....X..XXX.XXX ",
"XX..o....X X.....o..o...X.X.XX ",
"X.X..o...o o....oo...o.......X ",
"X....oo.oo oo.ooo..o...oo..... ",
".X..oooooo oooooooooo.oooo.... ",
"o.ooooooo   ooooooooooooooo..o ",
"                               ",
".XXXXXXXXXXXXXXXXXXXXXXXXXXXX. ",
"XXX.XXXXXXXX.XXX.XXXXXXXXXXXXX ",
"XXXX.XXX..X...X...X.XXX..XX.XX ",
"X...XoXo......o......X.....XXX ",
".....oooo.oo.....oo.o..o...... "
};
