/* XPM */
static char *result[] = {
/* columns rows colors chars-per-pixel */
"32 32 184 2 ",
"   c #4F342F",
".  c #533630",
"X  c #523833",
"o  c #563931",
"O  c #523934",
"+  c #5A3B32",
"@  c #5C3C30",
"#  c #5E3E33",
"$  c #5E3E34",
"%  c #543C38",
"&  c #553D38",
"*  c #604233",
"=  c #664335",
"-  c #684434",
";  c #6D4736",
":  c #6B4A36",
">  c #6D4838",
",  c #6A4C3F",
"<  c #724A33",
"1  c #704936",
"2  c #724B36",
"3  c #754D35",
"4  c #714A38",
"5  c #754C38",
"6  c #754C39",
"7  c #784F3B",
"8  c #735034",
"9  c #715137",
"0  c #7F5333",
"q  c #7C5134",
"w  c #7B5536",
"e  c #795832",
"r  c #7A5B37",
"t  c #705138",
"y  c #7B5238",
"u  c #78503B",
"i  c #7D513A",
"p  c #7C513B",
"a  c #7A5E3C",
"s  c #5A4642",
"d  c #614F4B",
"f  c #675754",
"g  c #7B6141",
"h  c #7B6345",
"j  c #7A655D",
"k  c #776B68",
"l  c #7C6E69",
"z  c #815433",
"x  c #825532",
"c  c #815B36",
"v  c #895935",
"b  c #8E5D34",
"n  c #8E5C35",
"m  c #8E5D35",
"M  c #83573F",
"N  c #84563C",
"B  c #84563D",
"V  c #8C5B3E",
"C  c #946135",
"Z  c #986336",
"A  c #9B6535",
"S  c #9B6536",
"D  c #A36A35",
"F  c #A56F3A",
"G  c #AE7137",
"H  c #B47538",
"J  c #B6783A",
"K  c #B87B3B",
"L  c #B87C3B",
"P  c #BB7E3D",
"I  c #BA7F3D",
"U  c #8B5C40",
"Y  c #8A5C42",
"T  c #8B5C42",
"R  c #8E5F43",
"E  c #8D6148",
"W  c #976344",
"Q  c #966445",
"!  c #9B6644",
"~  c #9E6847",
"^  c #9E6A49",
"/  c #9B7F48",
"(  c #866B5C",
")  c #8A6C5A",
"_  c #8B6D5C",
"`  c #9C6E51",
"'  c #8D705F",
"]  c #A26B47",
"[  c #A56E46",
"{  c #A16B48",
"}  c #A26B48",
"|  c #A06F4E",
" . c #A67446",
".. c #A77646",
"X. c #A87243",
"o. c #A87745",
"O. c #AD7C46",
"+. c #A9704A",
"@. c #AB7449",
"#. c #AC7749",
"$. c #AB744F",
"%. c #AD7948",
"&. c #B0754D",
"*. c #B77A50",
"=. c #B77B51",
"-. c #BB7D52",
";. c #877166",
":. c #8D7262",
">. c #8A7164",
",. c #897467",
"<. c #83736B",
"1. c #8B776D",
"2. c #807B7A",
"3. c #AB8236",
"4. c #BD813E",
"5. c #D09D3B",
"6. c #B68442",
"7. c #B18147",
"8. c #B98442",
"9. c #B88643",
"0. c #BE8540",
"q. c #BF8540",
"w. c #BC8840",
"e. c #B88E4A",
"r. c #BF904B",
"t. c #84807E",
"y. c #978174",
"u. c #978277",
"i. c #9C8477",
"p. c #96847B",
"a. c #9B867B",
"s. c #9B897F",
"d. c #C38B43",
"f. c #C58E44",
"g. c #C79246",
"h. c #C19349",
"j. c #C3954C",
"k. c #C99548",
"l. c #C8974A",
"z. c #C59A4C",
"x. c #CB9849",
"c. c #CD9B4B",
"v. c #CE9B4B",
"b. c #C8994E",
"n. c #CC9D4D",
"m. c #CF9E4C",
"M. c #CD9E4F",
"N. c #D09E4C",
"B. c #C68556",
"V. c #C4A24A",
"C. c #DEAF45",
"Z. c #D2A14E",
"A. c #D2A24E",
"S. c #D2A34F",
"D. c #D4A44F",
"F. c #D4A54F",
"G. c #D6A851",
"H. c #F9CA44",
"J. c #EDC858",
"K. c #FBD557",
"L. c #FBD85D",
"P. c #FDDF6C",
"I. c #FDE370",
"U. c #FDE87A",
"Y. c #898482",
"T. c #8B8584",
"R. c #8E8886",
"E. c #918884",
"W. c #998C86",
"Q. c #908B88",
"!. c #938C8A",
"~. c #958E8C",
"^. c #968E8C",
"/. c #988F8A",
"(. c #97918E",
"). c #98918E",
"_. c #9A9390",
"`. c #9C9592",
"'. c #9F9794",
"]. c #A19A96",
"[. c #A49C98",
"{. c #A69E9A",
"}. c #FEEE84",
"|. c #FFF089",
/* pixels */
"2.T.R.R.R.R.R.R.R.R.R.R.R.R.R.R.R.R.R.R.R.R.R.R.R.R.R.R.R.R.R.t.",
"Y.'.{.{.{.{.{.{.{.{.{.{.{.{.{.{.{.{.{.{.{.{.{.{.{.{.{.{.{.{.{.(.",
").{.{.{.{.{.{.{.].W.i.i.i.i.i.i.i.i.i.i.i.i.a._.{.{.{.{.{.{.{.{.",
").{.{.{.{.{.[./.y.' ] ] ] ] ] ] ] ] ] ] ] ] ^ ;.s.`.{.{.{.{.{.{.",
").{.{.{.{.{.E.) +.+.~ Y Y Y Y Y Y Y Y Y Y Y +.+.| ,._.{.{.{.{.{.",
").{.{.{.{.!.) +.{ M 3 z z z z z z z z z z z 4 R +.| 1._.{.{.{.{.",
").{.{.{.~.( +.} 2 z C I f.f.f.f.f.f.f.f.f.H z 0 p +.` 1.`.{.{.{.",
").{.{.{.>.+.} 1 b L f.x.G.G.r.7.7.7.M.G.G.f.d.G q p +.` p.{.{.{.",
").{.{.Q.E B.- C P x.G.G.r.o.@.&.&.&. .o.S.G.F.g.G 0 T &.:._.{.{.",
").{.{._ $.] @ J x.G.G.j.#.&.+.] ] ] &.&...G.G.F.d.A > +.` u.{.{.",
").{.!., -.= C K G.G.j.%.+.] w.5.5.5.X.] &.o.G.G.v.G q T Q j `.{.",
").{.Y.& W   J x.G.b.%.+.8.5.J.P.P.P.C.5.[ &.O.G.F.d.n > 7 f ).{.",
").{.Y.& N   K G.G.e.6 B 3.K.}.|.|.|.U.H.8 ! : G.G.v.n = ; f ).{.",
").{.Y.& N   K G.G.l.v = w a V.I.|.L./ e 5 # F G.G.v.n = ; f ).{.",
").{.Y.& N   K G.G.F.9.v ; i c g h r y i = S m.G.G.v.n = ; f ).{.",
").{.Y.& N   K G.G.G.A.9.q # ; i i i = # m c.G.G.G.v.n = ; f ).{.",
").{.Y.& N   K G.G.G.G.F.n.6.< o o o Z h.Z.G.G.G.G.v.n = ; f ).{.",
").{.Y.& N   K G.G.G.G.G.G.F.n.z.z.z.n.G.G.G.G.G.G.v.n = ; f ).{.",
").{.Y.& N   K G.G.G.G.G.G.G.G.G.G.G.G.G.G.G.G.G.G.v.n = ; f ).{.",
").{.Y.& N   K G.G.G.G.G.G.G.G.G.G.G.G.G.G.G.* 9 G.v.n = ; f ).{.",
").{.Y.& N   K G.G.G.G.G.G.G.G.G.G.G.G.G.G.  B.=.t v.n = ; f ).{.",
").{.Y.& N   K G.G.G.G.G.G.G.G.G.G.G.G.G.G.  V N t v.n = ; f ).{.",
").{.Y.& N   K A.4.G.G.G.G.G.G.G.G.G.G.G.G.H   @ 4.v.n = ; f ).{.",
").{.Y.& N   K A.4.G.G.G.G.G.G.G.G.G.G.G.G.G.K 4.G.v.n = ; f ).{.",
").{.Y.& N   K A.4.G.G.G.G.G.G.G.G.G.G.G.G.G.G.G.G.v.n = ; f ).{.",
").].Y.& N   K A.q.G.G.G.G.G.G.G.G.G.G.G.G.G.G.Z.G.v.n = ; f ^.[.",
"^.Y.2.& N   K G.G.D.D.G.G.G.G.G.G.G.G.G.G.G.A.4.G.v.n = ; f 2.^.",
"l <.k X N   K G.G.m.g.G.G.G.G.G.G.G.G.G.G.G.G.G.G.v.n = ; d l <.",
"U ! u o N   K G.N.G.G.G.G.G.G.G.G.G.G.G.G.G.G.G.G.v.n = ; $ U ! ",
"*.*.*.+ N   K A.4.D.N.G.G.G.G.G.G.G.G.G.G.G.G.v.G.v.n = ; M *.*.",
"i i i . N   K k.I g.0.v.v.v.v.v.v.v.v.v.v.v.k.K v.g.n = ; = i i ",
"s s s O N   D D D D D D D D D D D D D D D D D D D D x = ; % s s "
};
