/* XPM */
static char *result[] = {
/* columns rows colors chars-per-pixel */
"32 32 92 1 ",
"  c #2F2E2F",
". c #452614",
"X c #4A2B17",
"o c #472818",
"O c #4C2D1A",
"+ c #512F1A",
"@ c #4E301E",
"# c #55331D",
"$ c #5A351D",
"% c #5C391E",
"& c #603A1E",
"* c #563621",
"= c #593621",
"- c #573824",
"; c #5C3B23",
": c #613E23",
"> c #733E20",
", c #644125",
"< c #694427",
"1 c #64442A",
"2 c #6A4629",
"3 c #66482D",
"4 c #724A27",
"5 c #6D4D35",
"6 c #724D33",
"7 c #6F5138",
"8 c #73553C",
"9 c #75583E",
"0 c #7A5A3F",
"q c #39314B",
"w c #3E2F5A",
"e c #775941",
"r c #7B5D43",
"t c #7E6046",
"y c #7F6048",
"u c #564064",
"i c #874625",
"p c #8C4D2A",
"a c #904E2D",
"s c #8A5A2F",
"d c #925E2D",
"f c #8D5D32",
"g c #9A5A35",
"h c #8E6136",
"j c #8F6238",
"k c #906237",
"l c #9B6A36",
"z c #916439",
"x c #966A3D",
"c c #9C6C39",
"v c #A06F3C",
"b c #A2723E",
"n c #806147",
"m c #83654B",
"M c #86694D",
"N c #886A4F",
"B c #976B40",
"V c #9A6E43",
"C c #9F7345",
"Z c #8B6D52",
"A c #8E7154",
"S c #957759",
"D c #96795A",
"F c #987B5C",
"G c #A17545",
"H c #A47846",
"J c #AB7E47",
"K c #A17749",
"L c #A37A4A",
"P c #AA7E4C",
"I c #AD824C",
"U c #B2844D",
"Y c #AB8452",
"T c #AF8853",
"R c #B48B54",
"E c #BA8E55",
"W c #B58E59",
"Q c #B88F58",
"! c #BB9056",
"~ c #B7915A",
"^ c #BB945C",
"/ c #BF985F",
"( c #BF9A63",
") c #C1965C",
"_ c #C2985E",
"` c #C39D63",
"' c #C5A166",
"] c #C6A269",
"[ c #C9A56A",
"{ c #CBA96E",
"} c #CEAD71",
"| c #D0AE72",
/* pixels */
"uuuuuu   uuuuuuuuuuuuuuu   uuuuu",
"wwuuuuu uuuuuuuuuuwwuuuuu uuuuuu",
"wwwuwuu uuwwuwwwuwwwwuwuu uuwuww",
"1,11wqu uq,113,1111111wqu uq222,",
"[^^:;;;%;q,^_'''[]'[',q;1;;#<^/'",
"{'],ttyyy1m3JUUURERR,73nyttt2''[",
"{'';mmMMM0MM,;;%%;;;8M7MmMMy,`'[",
"}[[;NMZZZ0ZAA,ppip:9NA9NNZMM<{{{",
"}[[:NZAZZ0AAA,gggg:8ZZ8ZZZZZ1{{{",
"}|};ADDDD9DFF<gggg:0DD8DSSSS,}}}",
"'E!#57889;999%%%;:;798177e7e#EW'",
"'!!-57788;888:{[[[;598:88777#E!]",
"`EE%#%%#####,/_))))&##%####$#!!'",
"`E!)```_`'_^:))^))),lb_''``_`!E`",
"/EE!REEERRII%)_%$))&lbUUEEEEEEW/",
",,;,,:,:&%%%#UU<:UU;&<,,<<<<,:,,",
"````]`]````!+UU44UU#dc!`````']]]",
"`EQEQQQTTUPJ+bv``bv+dlJIUUTUREQ]",
"`QR$%&&&:&&&+#cclc$$%$$%$$$#+RR]",
"(WT$566666666+####+666666565#RW`",
"(YY*55rrrnnrn=>>>>#6nnyyrrre+YY^",
"QYY#55errnnnr=aaap=6nryrtrre+YY^",
"WYP#;;*-;#=*==aaaa$;;;;-----#YYQ",
"TLC#88mmMNNZZ@pppp=6ZZZZZNMyOCCW",
"TLLO57e9eeerr+iiii$6trrrrrr9XLHR",
"YLLo559eeeere@oOoOO5rrrrrr08XLHY",
"YVBO559eeeee@Q~~~QWOrrrrr0r9OVVH",
"PVVo*===#*##RPPPLPL~O#;$$#++oCVH",
"KVVoGKTRTYY#CGGHCHCCofYTYYYHOVVH",
"VjjOffzjxVx#kkjzhzkhOsxzjxBxOhjH",
"xhjOO#@@@OOOOO@OOOOOOOOO@@XXohjx",
"ooOO                        O..."
};
