/* XPM */
static char *result[] = {
/* columns rows colors chars-per-pixel */
"32 32 25 1 ",
"  c #0C0A07",
". c #1C1A1A",
"X c #291A18",
"o c #211C28",
"O c #242322",
"+ c #2F2E2F",
"@ c #362623",
"# c #3A2B28",
"$ c #2B2535",
"% c #4C342F",
"& c #553D39",
"* c #4C403D",
"= c #554C3C",
"- c #39314B",
"; c #3E2F5A",
": c #425059",
"> c #634A45",
", c #564064",
"< c #57636B",
"1 c #6E7D61",
"2 c #B56A68",
"3 c #C0AC98",
"4 c #D2A394",
"5 c #E4B5A5",
"6 c #DBCBBC",
/* pixels */
",,,,,,+++,,,,,,,,,,,,,,,+++,,,,,",
";;,,,,,+,,,,,,,,,,;;,,,,,+,,,,,,",
";;;,;,,+,,;;,;;;,;;;;,;,,+,,;,;;",
"--;;;-,+,-;;;;-;;;---;;-,+,-;;;;",
"-;;;---+---;; -  ;;;;;---+---;;-",
"-------+---  % %%  ;;----+------",
"------+++- &>>%>>&%  ---+++-----",
"+++++++++++ >>>>>>>%& ++++++++++",
",,,,,,,,,, &>>>>>>>&& ,,,,,,+++,",
",;,,,,,,,, >%%>>>>>>& ,,,,,,,+,,",
";;;;,;;;, %>4%>%>>>&%% ;,;;,,+,,",
";;;;;;;;-; >44>4>>>>% ;;-;;;,+,;",
";;;;;--;;- 4 45 4>%>&& ;;-;;-+-;",
";;;;--;;; %4X55X442>& ;-;;;--+--",
"-;-----;-- 4555544&&& ---;---+--",
"----------- 45554&&& -------+++-",
"++++++++++++ 444 && ++++++++++++",
",,,,,,,,+++ #333#1# ,,,+++,,,,,,",
",;,,,,,,,+, #663**#1 ,,,+,,,,,,,",
";;;;,;;,,+, #666#*#1 ;,,+,,;;,;;",
";-;-;;;-,+, #366#*#1 ;-,+,-;;;;;",
"--;;;;---+- #636#*#1 ---+---;;;;",
"----;----+- #:::#551 ---+----;--",
"--------+++ ::::::  ---+++------",
"+++++++++++ <<<<:: +++++++++++++",
"+++,,,,,,,, <<:<<: ,,,,,,,,,,,,,",
",+,,,,,,;,, <: :<: ,,,,;,,,;,,,,",
",+,;;,;;;;, :: :<: ;;,;;;,;;;;;;",
";+;;;;;;-;; == @@@ -;;;;;;;;;;-;",
"-+----------   === ----;;-------",
"+++-----$$$$oo$...$$$$----------",
"+++++++++OOOOOOOOOOOO+++++++++++"
};
