/* XPM */
static char *result[] = {
/* columns rows colors chars-per-pixel */
"32 32 27 1 ",
"  c black",
". c #0C0A07",
"X c #1C1A1A",
"o c #291A18",
"O c #211C28",
"+ c #242322",
"@ c #2F2E2F",
"# c #362623",
"$ c #3A2B28",
"% c #2B2535",
"& c #4C342F",
"* c #553D39",
"= c #4C403D",
"- c #554C3C",
"; c #2F2340",
": c #39314B",
"> c #3E2F5A",
", c #425059",
"< c #634A45",
"1 c #564064",
"2 c #57636B",
"3 c #6E7D61",
"4 c #B56A68",
"5 c #C0AC98",
"6 c #D2A394",
"7 c #E4B5A5",
"8 c #DBCBBC",
/* pixels */
"111111@@@111111111111111@@@11111",
">>11111@1111111111>>11111@111111",
">>>1>11@11>>1>>>1>>>>1>11@11>1>>",
"::>>>:1@1:>>>>:...:.:>>:1@1:>>>>",
":>>>:::@:::....&&&.&.>:::@:::>>:",
":::::::@::.&&&*<<<&<.::::@::::::",
"::::::@@@::.*<<<<<<<<.::@@@:::::",
"@@@@@@@@@@.*<<<<<<<<<.@@@@@@@@@@",
"1111111111.*<<<<&&<<< 111111@@@1",
"1>1111111.&&*<<<6&<&<* 111111@11",
">>>>1>>>1>.&<<<666<6< >>1>>11@11",
">>>>>>>>:>.*<<66.76.6* >:>>>1@1>",
">>>>>::>>.&*<466o77o6 >>>:>>:@:>",
">>>>::>>>:.***6677776 >:>>>::@::",
":>:::::>:::.***67776 ::::>:::@::",
"::::::::::::.**.666.::::::::@@@:",
"@@@@@@@@@@@@.$3$555$.@@@@@@@@@@@",
"11111111@@@.3$==885$.11@@@111111",
"1>1111111@1.3$=$888$.111@1111111",
">>>>1>>11@1.3$=$588$.>11@11>>1>>",
">:>:>>>:1@1.3$=$858$.>:1@1:>>>>>",
"::>>>>:::@:.377$,,,$.:::@:::>>>>",
"::::>::::@::..,,,,,,.:::@::::>::",
"::::::::@@@::.,,2222.::@@@::::::",
"@@@@@@@@@@@@@.,22,22.@@@@@@@@@@@",
"@@@1111111111.,2,.,2.11111111111",
"1@111111>1111.,2,.,,.11>111>1111",
"1@1>>1>>>>1>>.###.--.1>>>1>>>>>>",
">@>>>>>>:>>>>.---...>>>>>>>>>>:>",
":@::::::::%%%%OOX%OO%%%;>:::::::",
"@@@::::::::%%%%+++%%%%%:::::::::",
"@@@@@@@@@@@@@@@@@@@@@@@@@@@@@@@@"
};
