/* XPM */
static char *result[] = {
/* columns rows colors chars-per-pixel */
"32 32 23 1 ",
"  c #0C0A07",
". c #211C28",
"X c #242322",
"o c #2F2E2F",
"O c #362623",
"+ c #3A2B28",
"@ c #2B2535",
"# c #4C342F",
"$ c #553D39",
"% c #4C403D",
"& c #554C3C",
"* c #39314B",
"= c #3E2F5A",
"- c #425059",
"; c #634A45",
": c #5F7050",
"> c #6E6554",
", c #564064",
"< c #57636B",
"1 c #6E7D61",
"2 c #8F9D84",
"3 c #D2A394",
"4 c #E4B5A5",
/* pixels */
",,,,,,ooo,,,,,,,,,,,,,,,ooo,,,,,",
"==,,,,,o,,,,,,,,,,==,,,,,o,,,,,,",
"===,=,,o,,==,===,====,=,,o,,=,==",
"**===*,o,*=== *=  ***==*,o,*====",
"*===***o***= #  ##   =***o***==*",
"*******o*** #;##;;### ***o******",
"******ooo* ;;;;;;;;; ***ooo*****",
"ooooooooo #;;;;;;;##; oooooooooo",
",,,,,,,, ##;;;;;;#;;; ,,,,,,ooo,",
",=,,,,,,, ;;;;;;;;;;;# ,,,,,,o,,",
"====,===, $;;#;#;;;;# ==,==,,o,,",
"======== $$;;;#;;;;;$ ==*===,o,=",
"=====**== $$;;;;;;;;$$ ==*==*o*=",
"====**=== $$$;;;;;;$$ =*===**o**",
"*=*****=** $$;;;;$$$ ****=***o**",
"*********** $$$$$$$ ********ooo*",
"oooooooooo +1+111+1+ ooooooooooo",
",,,,,,,,oo ++11111++ ,,ooo,,,,,,",
",=,,,,,,, +++11111+++ ,,o,,,,,,,",
"====,==,, %1+12221+1% ,,o,,==,==",
"=*=*===* %% 11:::11 %% ,o,*=====",
"**====** 43 +12221+ 34 *o***====",
"****=****   -------   **o****=**",
"********ooo -<<<<<- ***ooo******",
"ooooooooooo -<<<<<- oooooooooooo",
"ooo,,,,,,,, -<- -<- ,,,,,,,,,,,,",
",o,,,,,,=,, -- , -- ,,,=,,,=,,,,",
",o,==,====, >> , OO =,===,======",
"=o======*===  *, && ==========*=",
"*o******@@@@..@@X..@@@@==*******",
"ooo******@@@@@@XXX@@@@**********",
"oooooooooooooooooooooooooooooooo"
};
